<svg xmlns="http://www.w3.org/2000/svg" viewBox="0 0 25 25"><title>Artboard-6</title><g id="Cloud_Close" data-name="Cloud Close"><path d="M12.5,13A4.5,4.5,0,1,0,17,17.5,4.505,4.505,0,0,0,12.5,13ZM15,19.293,14.293,20,12.5,18.207,10.707,20,10,19.293,11.793,17.5,10,15.707,10.707,15,12.5,16.793,14.293,15l.707.707L13.207,17.5Z" style="fill:#232326"/><path d="M19.99,7.21a4.4891,4.4891,0,0,0-8.82-.87A4.1578,4.1578,0,0,0,9.5,6,4.4857,4.4857,0,0,0,5.27,9.01,4.4979,4.4979,0,0,0,5.5,18H7.03A4.07,4.07,0,0,1,7,17.5a5.5,5.5,0,0,1,11,0,4.07,4.07,0,0,1-.03.5h.53A5.4975,5.4975,0,0,0,19.99,7.21Z" style="fill:#232326"/></g></svg>