<svg xmlns="http://www.w3.org/2000/svg" viewBox="0 0 25 25"><title>Artboard-12</title><g id="Zoom_In" data-name="Zoom In"><path d="M8.5,3A5.5,5.5,0,1,0,14,8.5,5.51,5.51,0,0,0,8.5,3ZM11,9H9v2H8V9H6V8H8V6H9V8h2Z" style="fill:#232326"/><path d="M17,8.5A8.5,8.5,0,1,0,8.5,17,8.51,8.51,0,0,0,17,8.5ZM8.5,15A6.5,6.5,0,1,1,15,8.5,6.5075,6.5075,0,0,1,8.5,15Z" style="fill:#232326"/><path d="M17.5,14.8l-1.07-1.07a9.6414,9.6414,0,0,1-2.7,2.7L14.8,17.5Z" style="fill:#232326"/><path d="M24.02,19.32,19.2,14.5l-4.7,4.7,4.82,4.82a3.3234,3.3234,0,1,0,4.7-4.7Z" style="fill:#232326"/></g></svg>