<svg xmlns="http://www.w3.org/2000/svg" viewBox="0 0 25 25"><title>Artboard-23</title><g id="Mic_Off" data-name="Mic Off"><path d="M18,14.5V10.12L9.22,18.9A5.4176,5.4176,0,0,0,12.5,20,5.51,5.51,0,0,0,18,14.5Z" style="fill:#232326"/><rect x="9" y="23" width="7" height="1" style="fill:#232326"/><path d="M12.5,21a6.42,6.42,0,0,1-3.99-1.39l-.72.72A7.494,7.494,0,0,0,20,14.5H19A6.5127,6.5127,0,0,1,12.5,21Z" style="fill:#232326"/><path d="M19.1465,6.1465,18,7.293V6.5a5.5,5.5,0,0,0-11,0v8a5.4444,5.4444,0,0,0,.8566,2.9364l-.7143.7143A6.4012,6.4012,0,0,1,6,14.5H5a7.397,7.397,0,0,0,1.4254,4.3676L5.1465,20.1465l.707.707,14-14Z" style="fill:#232326"/></g></svg>