<?xml version="1.0" standalone="no"?>
<!DOCTYPE svg PUBLIC "-//W3C//DTD SVG 20010904//EN"
 "http://www.w3.org/TR/2001/REC-SVG-20010904/DTD/svg10.dtd">
<svg version="1.0" xmlns="http://www.w3.org/2000/svg"
 width="2498.000000pt" height="2048.000000pt" viewBox="0 0 2498.000000 2048.000000"
 preserveAspectRatio="xMidYMid meet">

<g transform="translate(0.000000,2048.000000) scale(0.100000,-0.100000)"
fill="#000000" stroke="none">
<path d="M23270 20423 c0 -267 -77 -648 -187 -923 -139 -351 -326 -633 -603
-911 -239 -240 -487 -412 -787 -549 -248 -113 -429 -164 -782 -222 -45 -7
-875 -13 -2666 -18 -2850 -7 -2643 -3 -3010 -66 -1692 -294 -3081 -1593 -3495
-3266 -71 -290 -112 -578 -126 -900 l-7 -158 855 0 854 0 11 168 c27 382 106
678 273 1017 140 286 300 504 536 735 411 401 885 636 1484 737 98 16 284 18
2695 23 2742 7 2640 5 2930 50 1104 172 2079 737 2779 1611 446 557 759 1245
885 1946 40 221 71 530 71 706 l0 77 -855 0 -855 0 0 -57z"/>
<path d="M6160 12929 c-1140 -62 -2246 -425 -3210 -1054 -844 -550 -1584
-1334 -2084 -2208 -477 -833 -752 -1710 -843 -2687 -21 -231 -24 -841 -5
-1065 99 -1137 447 -2151 1057 -3075 967 -1466 2464 -2472 4189 -2814 l130
-26 1122 0 1123 0 153 31 c980 199 1856 591 2636 1179 209 157 342 269 549
461 l172 159 1318 0 1318 0 130 -123 c307 -287 568 -496 885 -707 717 -479
1483 -795 2349 -971 l144 -29 1126 0 1126 0 165 34 c587 122 1096 298 1630
565 1335 669 2413 1796 3023 3161 306 686 479 1361 549 2150 20 219 16 858 -5
1085 -82 852 -295 1599 -667 2346 -838 1676 -2358 2908 -4180 3388 -406 107
-870 178 -1318 201 -247 12 -12345 11 -12582 -1z m12540 -1709 c650 -40 1255
-200 1835 -485 1438 -707 2435 -2091 2644 -3671 34 -256 44 -458 38 -748 -6
-290 -21 -451 -67 -721 -296 -1728 -1537 -3172 -3206 -3731 -515 -172 -984
-247 -1539 -247 -536 1 -996 75 -1500 240 -874 287 -1677 845 -2243 1560 l-97
122 -2097 1 -2097 0 -83 -102 c-119 -148 -216 -258 -337 -381 -1047 -1070
-2529 -1589 -4017 -1407 -1176 144 -2246 711 -3037 1610 -1008 1146 -1407
2730 -1066 4234 248 1094 896 2093 1792 2764 789 591 1662 907 2662 965 152 9
12269 6 12415 -3z"/>
<path d="M5970 9299 c-184 -27 -326 -148 -394 -334 -7 -20 -12 -282 -16 -805
l-5 -775 -775 -5 c-523 -4 -785 -9 -805 -16 -157 -57 -268 -168 -318 -317 -20
-59 -21 -85 -25 -572 -2 -328 1 -538 7 -590 27 -199 164 -358 350 -407 59 -15
141 -17 819 -17 l752 -1 0 -759 c0 -726 1 -762 20 -822 35 -114 97 -197 194
-261 121 -78 116 -78 746 -78 531 0 561 1 623 20 163 50 291 191 326 358 7 36
11 288 11 797 l0 744 773 3 c740 3 774 4 827 23 126 45 241 156 292 282 l23
58 3 574 c3 622 3 621 -53 731 -54 104 -162 193 -283 230 -62 19 -94 20 -823
20 l-759 0 0 745 c0 504 -4 761 -11 797 -41 198 -208 352 -409 378 -90 11
-1012 11 -1090 -1z"/>
<path d="M18309 9299 c-272 -26 -541 -191 -696 -426 -68 -104 -99 -174 -128
-289 -85 -332 6 -672 245 -914 241 -244 602 -342 935 -253 83 22 235 94 309
147 68 48 186 169 233 237 49 71 101 182 130 276 25 81 27 102 27 263 1 154
-2 185 -22 255 -132 462 -555 750 -1033 704z"/>
<path d="M16322 7369 c-129 -23 -290 -92 -399 -172 -239 -176 -377 -438 -390
-737 -20 -454 275 -849 726 -972 101 -28 342 -31 443 -5 297 74 539 271 663
541 63 135 80 221 79 401 0 186 -16 258 -87 409 -120 251 -332 431 -604 512
-73 22 -113 27 -233 30 -80 1 -169 -1 -198 -7z"/>
<path d="M20151 7365 c-359 -78 -640 -337 -741 -685 -28 -95 -38 -306 -20
-416 76 -477 510 -825 995 -801 137 7 243 34 364 93 265 127 453 358 523 640
31 126 31 324 0 447 -47 189 -137 342 -278 476 -136 129 -296 212 -473 245
-101 19 -282 20 -370 1z"/>
<path d="M18295 5453 c-210 -29 -412 -128 -561 -277 -286 -287 -362 -719 -190
-1082 55 -115 91 -168 178 -260 176 -185 391 -281 654 -291 182 -8 305 18 464
95 262 128 457 382 515 671 21 104 16 335 -9 425 -107 379 -394 644 -774 711
-72 13 -209 17 -277 8z"/>
</g>
</svg>
